<?xml version="1.0" encoding="UTF-8"?> <!-- c-c c-c to README.org -->
<svg xmlns="http://www.w3.org/2000/svg"
     width="900" height="310" viewbox="0 0 900 310"
     stroke-width="1" stroke="#fff" letter-spacing="2px"
     font-size="16px" font-family="monospace" font-weight="normal">
 <!-- <g transform="scale(1.333, 1.333)"> -->
  <rect width="900" height="310" fill="#000"/>
  <defs>
    <rect id="kl" width="50" height="50" rx="10"/>
    <circle id="cr" cy="-5" r="10" fill="#800"/>
  </defs>

  <g transform="translate(0 10)">
  <use x="10"  href="#kl" fill="#800"/>
  <use x="70"  href="#kl"/>
  <use x="130" href="#kl"/>
  <use x="190" href="#kl"/>
  <use x="250" href="#kl" fill="#800"/>
  <use x="310" href="#kl"/>
  <use x="370" href="#kl"/>
  <use x="430" href="#kl"/>
  <use x="490" href="#kl"/>
  <use x="550" href="#kl"/>
  <use x="610" href="#kl"/>
  <use x="670" href="#kl"/>
  <use x="730" href="#kl"/>
  <rect x="790" width="100" height="50" rx="10"/>
  </g>

  <g transform="translate(0 70)">
  <rect x="10" width="80" height="50" rx="10"/>
  <use x="100" href="#kl"/>
  <use x="160" href="#kl"/>
  <use x="220" href="#kl"/>
  <use x="280" href="#kl"/>
  <use x="340" href="#kl"/>
  <use x="400" href="#kl"/>
  <use x="460" href="#kl"/>
  <use x="520" href="#kl"/>
  <use x="580" href="#kl"/>
  <use x="640" href="#kl"/>
  <use x="700" href="#kl" fill="#800"/>
  <use x="760" href="#kl" fill="#800"/>
  </g>

  <path d="M 830 70
           L 880 70   A 10 10  0 0 1  890 80
           L 890 170  A 10 10  0 0 1  880 180
           L 850 180  A 10 10  0 0 1  840 170
           L 840 130  A 10 10  0 0 0  830 120  A 10 10 0 0 1 820 110
           L 820 80   A 10 10  0 0 1  830 70" />

  <g transform="translate(0 130)">
  <rect x="10" width="100" height="50" rx="10" fill="#800"/>
  <use x="120" href="#kl"/>
  <use x="180" href="#kl"/>
  <use x="240" href="#kl"/>
  <use x="300" href="#kl"/>
  <use x="360" href="#kl"/>
  <use x="420" href="#kl"/>
  <use x="480" href="#kl"/>
  <use x="540" href="#kl"/>
  <use x="600" href="#kl"/>
  <use x="660" href="#kl"/>
  <use x="720" href="#kl"/>
  <use x="780" href="#kl"/>
  </g>

  <g transform="translate(0 190)">
  <rect x="10" width="70" height="50" rx="10"/>
  <use  x="90" href="#kl"/>
  <use x="150" href="#kl"/>
  <use x="210" href="#kl"/>
  <use x="270" href="#kl"/>
  <use x="330" href="#kl"/>
  <use x="390" href="#kl"/>
  <use x="450" href="#kl"/>
  <use x="510" href="#kl"/>
  <use x="570" href="#kl"/>
  <use x="630" href="#kl"/>
  <use x="690" href="#kl"/>
  <rect x="750" width="140" height="50" rx="10"/>
  </g>

  <g transform="translate(0 250)">
  <rect x="10" width="100" height="50" rx="10"/>
  <rect x="120" width="80" height="50" rx="10"/>
  <rect x="210" width="80" height="50" rx="10"/>
  <rect x="300" width="290" height="50" rx="10"/>
  <rect x="600" width="80" height="50" rx="10"/>
  <rect x="690" width="80" height="50" rx="10"/>
  </g>

  <g transform="translate(-20 50)" fill="#fff">
  <text x="40" > ` </text>  <text x="60"> § </text>
  <text x="100"> 1 </text>
  <text x="160"> 2 </text>  <text x="180"> @ </text>
  <text x="220"> 3 </text>
  <text x="280"> 4 </text>  <text x="300"> ¤ </text>
  <text x="340"> 5 </text>
  <text x="400"> 6 </text>
  <text x="460"> 7 </text>  <text x="480"> { </text>
  <text x="520"> 8 </text>  <text x="540"> [ </text>
  <text x="580"> 9 </text>  <text x="600"> ] </text>
  <text x="640"> 0 </text>  <text x="660"> } </text>
  <text x="700"> + </text>  <text x="720"> \ </text>
  <text x="770"> ´ </text>
  </g>

  <g transform="translate(-20 30)" fill="#fff">
  <text x="40" > ^ </text>  <text x="60"> ½ </text>
  <text x="100"> ! </text>
  <text x="160"> ” </text>
  <text x="220"> # </text>
  <text x="280"> $ </text>
  <text x="340"> % </text>
  <text x="400"> &amp; </text>
  <text x="460"> / </text>
  <text x="520"> ( </text>
  <text x="580"> ) </text>
  <text x="640"> = </text>
  <text x="700"> ? </text>
  <text x="770"> ` </text>
  <text x="875" y="10" font-size="24px"> ⇦ </text>

  <use x="126" href="#cr" />
  <text x="123" y="-1" font-size="12px" font-weight="normal"> / </text>
  </g>

  <g transform="translate(10 95)" fill="#fff">
  <text x="25" y="5" font-size="24px"> ↹ </text>
  <text x="100"> Q </text>
  <text x="160"> W </text>
  <text x="220"> E </text>  <text x="240" y="16"> € </text>
  <text x="280"> R </text>
  <text x="340"> T </text>
  <text x="400"> Y </text>
  <text x="460"> U </text>
  <text x="520"> I </text>
  <text x="580"> O </text>
  <text x="640"> P </text>
  <text x="700" y="-5"> { </text>  <text x="700" y="15"> [ </text>
  <text x="760" y="-5"> } </text>  <text x="760" y="15"> ] </text>

  <text x="720"> Å </text>
  <text x="780" y="-5"> ^ </text>  <text x="780" y="15"> ~ </text>

  <text x="845" y="10" font-size="24px"> ↵ </text>

  <use x="126" href="#cr" />
  <text x="119" y="7" font-size="14px" font-weight="normal"> ˝ </text>
  <text x="126" y="1" font-size="14px" font-weight="normal"> ˚ </text>

  <use x="426" href="#cr" />
  <text x="420" y="2" font-size="12px" font-weight="normal"> ~ </text>
  <text x="426" y="-1" font-size="12px" font-weight="normal"> ¯ </text>

  <use x="486" href="#cr" />
  <text x="480" y="6" font-size="12px" font-weight="normal"> ¨ </text>
  <text x="486" y="-4" font-size="10px" font-weight="normal"> ^ </text>
  </g>

  <g transform="translate(30 155)" fill="#fff">
  <text x="0" y="5"> Ctrl </text>
  <text x="100"> A </text>
  <text x="160"> S </text>
  <text x="220"> D </text>
  <text x="280"> F </text>
  <text x="340"> G </text>
  <text x="400"> H </text>
  <text x="460"> J </text>
  <text x="520"> K </text>
  <text x="580"> L </text>
  <text x="640"> Ö </text>
  <text x="700"> Ä </text>
  <text x="760"> * </text>  <text x="760" y="15"> ’ </text>
  </g>

  <g transform="translate(60 215)"  fill="#fff">
  <text x="-30" y="5" font-size="24px"> ⇧ </text>
  <text x="40" y="-5"> &gt; </text>  <text x="40" y="15"> &lt; </text>
  <text x="100"> Z </text>           <text x="60" y="15"> | </text>
  <text x="160"> X </text>
  <text x="220"> C </text>
  <text x="280"> V </text>
  <text x="340"> B </text>
  <text x="400"> N </text>
  <text x="460"> M </text>
  <text x="520" y="-5"> ; </text>  <text x="520" y="15"> , </text>
  <text x="580" y="-5"> : </text>  <text x="580" y="15"> . </text>
  <text x="640" y="-5"> _ </text>  <text x="640" y="15"> - </text>
  <text x="795" y="5" font-size="24px"> ⇧ </text>
  </g>

  <g transform="translate(30 280)" fill="#fff">
  <text x="0"> Ctrl </text>
  <text x="200"> Alt </text>
  <text x="580"> AltGr </text>
  </g>

  <g transform="translate(135 261)" stroke-width="2.5">
    <rect width="51" height="28" rx="6"/>
    <rect width="17" height="28" x="17"/>
    <line x1="0" y1="14" x2="51" y2="14"/>
  </g>
 <!-- </g> -->
</svg>
